# xmcd
#
# Track frame offsets: 
#        150
#        12987
#        30572
#        46830
#        62375
#        78607
#        92057
#        106104
#        122585
#        136097
#        152752
#        170442
#
# Disc length: 2441 seconds
#
# Revision: 1
# Processed by: cddbd v1.5.2PL0 Copyright (c) Steve Scherf et al.
# Submitted via: ExactAudioCopy v0.95b4
#
DISCID=8709870c
DTITLE=ฝน  ธนสุนทร - แอบรักเขา
DYEAR=2001
DGENRE=Country
TTITLE0=แอบรักเขา
TTITLE1=หัวใจที่ถอดวาง
TTITLE2=รักที่เลือกไม่ได้
TTITLE3=ฝั่งหัวใจ
TTITLE4=แม่สอดสะอื้น
TTITLE5=โปรดเถิดจงลืม
TTITLE6=รักสำรอง
TTITLE7=คลื่นกระทบฝั่ง
TTITLE8=รักที่อยากลืม
TTITLE9=ราตรีนี้มีอดีต
TTITLE10=หัวใจที่ถอดวาง  (คาราโอเกะ)
TTITLE11=แอบรักเขา  (คาราโอเกะ)
EXTD=
EXTT0=
EXTT1=
EXTT2=
EXTT3=
EXTT4=
EXTT5=
EXTT6=
EXTT7=
EXTT8=
EXTT9=
EXTT10=
EXTT11=
PLAYORDER=
